<mxfile host="app.diagrams.net" agent="Mozilla/5.0 (Windows NT 10.0; Win64; x64) AppleWebKit/537.36 (KHTML, like Gecko) Chrome/136.0.0.0 Safari/537.36" version="27.1.1">
  <diagram name="페이지-1" id="1X-zOPS3P5n91w_eo-Fi">
    <mxGraphModel dx="1121" dy="1238" grid="1" gridSize="10" guides="1" tooltips="1" connect="1" arrows="1" fold="1" page="1" pageScale="1" pageWidth="827" pageHeight="1169" math="0" shadow="0">
      <root>
        <mxCell id="0" />
        <mxCell id="1" parent="0" />
        <mxCell id="8cf6yr74W_c1tDn1U8IE-107" value="브로커 경계" style="html=1;fontColor=#FF3333;fontStyle=1;align=left;verticalAlign=top;spacing=0;labelBorderColor=none;fillColor=none;dashed=1;strokeWidth=2;strokeColor=#FF3333;spacingLeft=4;spacingTop=-3;" parent="1" vertex="1">
          <mxGeometry x="2490" y="76.88" width="320" height="273.12" as="geometry" />
        </mxCell>
        <mxCell id="YD3nCFCc6FsJgZ06bodJ-26" style="edgeStyle=orthogonalEdgeStyle;rounded=0;orthogonalLoop=1;jettySize=auto;html=1;exitX=1;exitY=1;exitDx=0;exitDy=0;exitPerimeter=0;entryX=0.623;entryY=1.015;entryDx=0;entryDy=0;entryPerimeter=0;" parent="1" target="YD3nCFCc6FsJgZ06bodJ-102" edge="1">
          <mxGeometry relative="1" as="geometry">
            <mxPoint x="1020" y="860" as="targetPoint" />
            <Array as="points">
              <mxPoint x="280" y="770" />
              <mxPoint x="210" y="770" />
              <mxPoint x="210" y="970" />
              <mxPoint x="810" y="970" />
              <mxPoint x="810" y="1070" />
              <mxPoint x="1020" y="1070" />
              <mxPoint x="1020" y="811" />
            </Array>
            <mxPoint x="280" y="790" as="sourcePoint" />
          </mxGeometry>
        </mxCell>
        <mxCell id="YD3nCFCc6FsJgZ06bodJ-75" value="&lt;font style=&quot;font-size: 14px;&quot;&gt;차량 경계&lt;/font&gt;" style="html=1;fontColor=#FF3333;fontStyle=1;align=left;verticalAlign=top;spacing=0;labelBorderColor=none;fillColor=none;dashed=1;strokeWidth=2;strokeColor=#FF3333;spacingLeft=4;spacingTop=-3;" parent="1" vertex="1">
          <mxGeometry x="1660" y="80" width="800" height="555" as="geometry" />
        </mxCell>
        <mxCell id="YD3nCFCc6FsJgZ06bodJ-77" value="&lt;font style=&quot;font-size: 14px;&quot;&gt;서버 경계&lt;/font&gt;" style="html=1;fontColor=#FF3333;fontStyle=1;align=left;verticalAlign=top;spacing=0;labelBorderColor=none;fillColor=none;dashed=1;strokeWidth=2;strokeColor=#FF3333;spacingLeft=4;spacingTop=-3;" parent="1" vertex="1">
          <mxGeometry x="2840" y="76.25" width="890" height="553.75" as="geometry" />
        </mxCell>
        <mxCell id="YD3nCFCc6FsJgZ06bodJ-78" value="&lt;font style=&quot;font-size: 14px;&quot;&gt;사용자 경계&lt;/font&gt;" style="html=1;fontColor=#FF3333;fontStyle=1;align=left;verticalAlign=top;spacing=0;labelBorderColor=none;fillColor=none;dashed=1;strokeWidth=2;strokeColor=#FF3333;spacingLeft=4;spacingTop=-3;" parent="1" vertex="1">
          <mxGeometry x="2040" y="650" width="1220" height="230" as="geometry" />
        </mxCell>
        <mxCell id="YD3nCFCc6FsJgZ06bodJ-128" value="디스플레이" style="html=1;whiteSpace=wrap;" parent="1" vertex="1">
          <mxGeometry x="2040" y="545" width="110" height="50" as="geometry" />
        </mxCell>
        <mxCell id="YD3nCFCc6FsJgZ06bodJ-129" value="스피커" style="html=1;whiteSpace=wrap;" parent="1" vertex="1">
          <mxGeometry x="2160" y="545" width="110" height="50" as="geometry" />
        </mxCell>
        <mxCell id="YD3nCFCc6FsJgZ06bodJ-130" value="&lt;font style=&quot;font-size: 14px;&quot;&gt;ECU&lt;/font&gt;" style="html=1;whiteSpace=wrap;" parent="1" vertex="1">
          <mxGeometry x="1680" y="130" width="127" height="70" as="geometry" />
        </mxCell>
        <mxCell id="YD3nCFCc6FsJgZ06bodJ-236" value="&lt;span style=&quot;font-size: 14px;&quot;&gt;데이터 수집&lt;/span&gt;" style="shape=ellipse;html=1;dashed=0;whiteSpace=wrap;aspect=fixed;perimeter=ellipsePerimeter;" parent="1" vertex="1">
          <mxGeometry x="1910" y="160" width="100" height="100" as="geometry" />
        </mxCell>
        <mxCell id="8cf6yr74W_c1tDn1U8IE-10" value="&lt;span style=&quot;font-size: 14px;&quot;&gt;페달 압력 센서&lt;/span&gt;" style="html=1;whiteSpace=wrap;" parent="1" vertex="1">
          <mxGeometry x="1680" y="222.5" width="127" height="70" as="geometry" />
        </mxCell>
        <mxCell id="8cf6yr74W_c1tDn1U8IE-15" value="속도, RPM" style="rounded=1;whiteSpace=wrap;html=1;fillColor=#DCF4A4;opacity=80;" parent="1" vertex="1">
          <mxGeometry x="1830" y="150" width="80" height="21.82" as="geometry" />
        </mxCell>
        <mxCell id="8cf6yr74W_c1tDn1U8IE-21" value="" style="curved=1;endArrow=classic;html=1;rounded=0;entryX=0;entryY=0.5;entryDx=0;entryDy=0;exitX=1;exitY=0.5;exitDx=0;exitDy=0;" parent="1" source="YD3nCFCc6FsJgZ06bodJ-130" target="YD3nCFCc6FsJgZ06bodJ-236" edge="1">
          <mxGeometry width="50" height="50" relative="1" as="geometry">
            <mxPoint x="1767" y="150" as="sourcePoint" />
            <mxPoint x="1817" y="100" as="targetPoint" />
            <Array as="points">
              <mxPoint x="1880" y="165" />
            </Array>
          </mxGeometry>
        </mxCell>
        <mxCell id="8cf6yr74W_c1tDn1U8IE-22" value="" style="curved=1;endArrow=classic;html=1;rounded=0;entryX=0;entryY=0.5;entryDx=0;entryDy=0;exitX=1;exitY=0.5;exitDx=0;exitDy=0;" parent="1" source="8cf6yr74W_c1tDn1U8IE-10" target="YD3nCFCc6FsJgZ06bodJ-236" edge="1">
          <mxGeometry width="50" height="50" relative="1" as="geometry">
            <mxPoint x="1767" y="300" as="sourcePoint" />
            <mxPoint x="1870" y="375" as="targetPoint" />
            <Array as="points">
              <mxPoint x="1880" y="250" />
            </Array>
          </mxGeometry>
        </mxCell>
        <mxCell id="8cf6yr74W_c1tDn1U8IE-26" value="" style="curved=1;endArrow=classic;html=1;rounded=0;entryX=0;entryY=0.5;entryDx=0;entryDy=0;exitX=1;exitY=0.5;exitDx=0;exitDy=0;" parent="1" source="YD3nCFCc6FsJgZ06bodJ-236" target="8cf6yr74W_c1tDn1U8IE-47" edge="1">
          <mxGeometry width="50" height="50" relative="1" as="geometry">
            <mxPoint x="2060" y="217" as="sourcePoint" />
            <mxPoint x="2095" y="205" as="targetPoint" />
            <Array as="points">
              <mxPoint x="2050" y="190" />
            </Array>
          </mxGeometry>
        </mxCell>
        <mxCell id="8cf6yr74W_c1tDn1U8IE-27" value="" style="curved=1;endArrow=classic;html=1;rounded=0;exitX=0.5;exitY=1;exitDx=0;exitDy=0;entryX=0.5;entryY=0;entryDx=0;entryDy=0;" parent="1" source="8cf6yr74W_c1tDn1U8IE-47" target="8cf6yr74W_c1tDn1U8IE-36" edge="1">
          <mxGeometry width="50" height="50" relative="1" as="geometry">
            <mxPoint x="2170" y="260" as="sourcePoint" />
            <mxPoint x="2163.75" y="379.99999999999955" as="targetPoint" />
            <Array as="points">
              <mxPoint x="2180" y="300" />
            </Array>
          </mxGeometry>
        </mxCell>
        <mxCell id="8cf6yr74W_c1tDn1U8IE-34" value="" style="curved=1;endArrow=classic;html=1;rounded=0;exitX=0.5;exitY=1;exitDx=0;exitDy=0;entryX=0.5;entryY=0;entryDx=0;entryDy=0;" parent="1" source="8cf6yr74W_c1tDn1U8IE-36" target="YD3nCFCc6FsJgZ06bodJ-128" edge="1">
          <mxGeometry width="50" height="50" relative="1" as="geometry">
            <mxPoint x="2163.75" y="444.99999999999955" as="sourcePoint" />
            <mxPoint x="2330" y="420" as="targetPoint" />
            <Array as="points">
              <mxPoint x="2100" y="470" />
            </Array>
          </mxGeometry>
        </mxCell>
        <mxCell id="8cf6yr74W_c1tDn1U8IE-35" value="" style="curved=1;endArrow=classic;html=1;rounded=0;entryX=0.5;entryY=0;entryDx=0;entryDy=0;exitX=0.5;exitY=1;exitDx=0;exitDy=0;" parent="1" source="8cf6yr74W_c1tDn1U8IE-36" target="YD3nCFCc6FsJgZ06bodJ-129" edge="1">
          <mxGeometry width="50" height="50" relative="1" as="geometry">
            <mxPoint x="2163.75" y="444.99999999999955" as="sourcePoint" />
            <mxPoint x="2140" y="590" as="targetPoint" />
            <Array as="points">
              <mxPoint x="2210" y="470" />
              <mxPoint x="2230" y="515" />
            </Array>
          </mxGeometry>
        </mxCell>
        <mxCell id="8cf6yr74W_c1tDn1U8IE-36" value="&lt;span style=&quot;font-size: 14px;&quot;&gt;상태 출력 처리&lt;/span&gt;" style="shape=ellipse;html=1;dashed=0;whiteSpace=wrap;aspect=fixed;perimeter=ellipsePerimeter;" parent="1" vertex="1">
          <mxGeometry x="2113" y="340" width="100" height="100" as="geometry" />
        </mxCell>
        <mxCell id="8cf6yr74W_c1tDn1U8IE-41" value="사용자 피드백 전달" style="shape=ellipse;html=1;dashed=0;whiteSpace=wrap;aspect=fixed;perimeter=ellipsePerimeter;" parent="1" vertex="1">
          <mxGeometry x="2110" y="730" width="100" height="100" as="geometry" />
        </mxCell>
        <mxCell id="8cf6yr74W_c1tDn1U8IE-42" value="" style="curved=1;endArrow=classic;html=1;rounded=0;exitX=0.5;exitY=1;exitDx=0;exitDy=0;entryX=0.5;entryY=0;entryDx=0;entryDy=0;" parent="1" source="YD3nCFCc6FsJgZ06bodJ-128" target="8cf6yr74W_c1tDn1U8IE-41" edge="1">
          <mxGeometry width="50" height="50" relative="1" as="geometry">
            <mxPoint x="2050" y="730" as="sourcePoint" />
            <mxPoint x="2100" y="680" as="targetPoint" />
            <Array as="points">
              <mxPoint x="2080" y="700" />
            </Array>
          </mxGeometry>
        </mxCell>
        <mxCell id="8cf6yr74W_c1tDn1U8IE-43" value="" style="curved=1;endArrow=classic;html=1;rounded=0;exitX=0.5;exitY=1;exitDx=0;exitDy=0;entryX=0.5;entryY=0;entryDx=0;entryDy=0;" parent="1" source="YD3nCFCc6FsJgZ06bodJ-129" target="8cf6yr74W_c1tDn1U8IE-41" edge="1">
          <mxGeometry width="50" height="50" relative="1" as="geometry">
            <mxPoint x="2119" y="640" as="sourcePoint" />
            <mxPoint x="2142" y="700" as="targetPoint" />
            <Array as="points">
              <mxPoint x="2220" y="640" />
              <mxPoint x="2210" y="710" />
            </Array>
          </mxGeometry>
        </mxCell>
        <mxCell id="8cf6yr74W_c1tDn1U8IE-45" value="&lt;font style=&quot;font-size: 14px;&quot;&gt;운전자&lt;/font&gt;" style="html=1;whiteSpace=wrap;" parent="1" vertex="1">
          <mxGeometry x="2360" y="730" width="130" height="90" as="geometry" />
        </mxCell>
        <mxCell id="8cf6yr74W_c1tDn1U8IE-46" value="&lt;span style=&quot;font-size: 14px;&quot;&gt;Server&lt;/span&gt;" style="html=1;whiteSpace=wrap;" parent="1" vertex="1">
          <mxGeometry x="3140" y="171.82" width="130" height="90" as="geometry" />
        </mxCell>
        <mxCell id="8cf6yr74W_c1tDn1U8IE-47" value="&lt;font style=&quot;font-size: 14px;&quot;&gt;Raspberry Pi&lt;/font&gt;" style="html=1;whiteSpace=wrap;" parent="1" vertex="1">
          <mxGeometry x="2113" y="165" width="130" height="90" as="geometry" />
        </mxCell>
        <mxCell id="8cf6yr74W_c1tDn1U8IE-49" value="&lt;span style=&quot;font-size: 14px;&quot;&gt;주행 로그&lt;/span&gt;&lt;span style=&quot;background-color: transparent; color: light-dark(rgb(0, 0, 0), rgb(255, 255, 255)); font-size: 14px;&quot;&gt;Publish&lt;/span&gt;" style="shape=ellipse;html=1;dashed=0;whiteSpace=wrap;aspect=fixed;perimeter=ellipsePerimeter;" parent="1" vertex="1">
          <mxGeometry x="2340" y="171.82" width="100" height="100" as="geometry" />
        </mxCell>
        <mxCell id="8cf6yr74W_c1tDn1U8IE-50" value="" style="curved=1;endArrow=classic;html=1;rounded=0;entryX=0;entryY=0.5;entryDx=0;entryDy=0;exitX=1;exitY=0.5;exitDx=0;exitDy=0;" parent="1" source="8cf6yr74W_c1tDn1U8IE-47" target="8cf6yr74W_c1tDn1U8IE-49" edge="1">
          <mxGeometry width="50" height="50" relative="1" as="geometry">
            <mxPoint x="2470" y="270" as="sourcePoint" />
            <mxPoint x="2570" y="270" as="targetPoint" />
            <Array as="points">
              <mxPoint x="2300" y="200" />
            </Array>
          </mxGeometry>
        </mxCell>
        <mxCell id="8cf6yr74W_c1tDn1U8IE-51" value="" style="curved=1;endArrow=classic;html=1;rounded=0;entryX=0;entryY=0.5;entryDx=0;entryDy=0;exitX=1;exitY=0.5;exitDx=0;exitDy=0;" parent="1" source="8cf6yr74W_c1tDn1U8IE-49" target="8cf6yr74W_c1tDn1U8IE-104" edge="1">
          <mxGeometry width="50" height="50" relative="1" as="geometry">
            <mxPoint x="2490" y="260" as="sourcePoint" />
            <mxPoint x="2640" y="276" as="targetPoint" />
            <Array as="points">
              <mxPoint x="2500" y="250" />
            </Array>
          </mxGeometry>
        </mxCell>
        <mxCell id="8cf6yr74W_c1tDn1U8IE-59" value="&lt;span style=&quot;font-size: 14px;&quot;&gt;분석 결과 요청&lt;/span&gt;" style="shape=ellipse;html=1;dashed=0;whiteSpace=wrap;aspect=fixed;perimeter=ellipsePerimeter;" parent="1" vertex="1">
          <mxGeometry x="2895" y="480" width="100" height="100" as="geometry" />
        </mxCell>
        <mxCell id="8cf6yr74W_c1tDn1U8IE-69" value="&lt;span style=&quot;font-size: 14px;&quot;&gt;주행 로그 요청&lt;/span&gt;" style="shape=ellipse;html=1;dashed=0;whiteSpace=wrap;aspect=fixed;perimeter=ellipsePerimeter;" parent="1" vertex="1">
          <mxGeometry x="3150" y="480" width="100" height="100" as="geometry" />
        </mxCell>
        <mxCell id="8cf6yr74W_c1tDn1U8IE-70" value="&lt;span style=&quot;font-size: 14px;&quot;&gt;APP&lt;/span&gt;" style="html=1;whiteSpace=wrap;" parent="1" vertex="1">
          <mxGeometry x="2865" y="739.9999999999999" width="130" height="90" as="geometry" />
        </mxCell>
        <mxCell id="8cf6yr74W_c1tDn1U8IE-72" value="&lt;span style=&quot;font-size: 14px;&quot;&gt;로그인 요청&lt;/span&gt;" style="shape=ellipse;html=1;dashed=0;whiteSpace=wrap;aspect=fixed;perimeter=ellipsePerimeter;" parent="1" vertex="1">
          <mxGeometry x="3410" y="480" width="100" height="100" as="geometry" />
        </mxCell>
        <mxCell id="8cf6yr74W_c1tDn1U8IE-73" value="" style="curved=1;endArrow=classic;html=1;rounded=0;exitX=1;exitY=0.5;exitDx=0;exitDy=0;entryX=0;entryY=0.5;entryDx=0;entryDy=0;" parent="1" source="8cf6yr74W_c1tDn1U8IE-41" target="8cf6yr74W_c1tDn1U8IE-45" edge="1">
          <mxGeometry width="50" height="50" relative="1" as="geometry">
            <mxPoint x="2360" y="760" as="sourcePoint" />
            <mxPoint x="2290" y="905" as="targetPoint" />
            <Array as="points">
              <mxPoint x="2300" y="790" />
            </Array>
          </mxGeometry>
        </mxCell>
        <mxCell id="8cf6yr74W_c1tDn1U8IE-74" value="" style="curved=1;endArrow=classic;html=1;rounded=0;entryX=0.5;entryY=0;entryDx=0;entryDy=0;exitX=0.5;exitY=1;exitDx=0;exitDy=0;" parent="1" source="8cf6yr74W_c1tDn1U8IE-46" target="8cf6yr74W_c1tDn1U8IE-132" edge="1">
          <mxGeometry width="50" height="50" relative="1" as="geometry">
            <mxPoint x="2690" y="340" as="sourcePoint" />
            <mxPoint x="2955" y="340" as="targetPoint" />
            <Array as="points">
              <mxPoint x="3040" y="300" />
            </Array>
          </mxGeometry>
        </mxCell>
        <mxCell id="8cf6yr74W_c1tDn1U8IE-78" value="페달 압력 상태, 속도, RPM" style="rounded=1;whiteSpace=wrap;html=1;fillColor=#DCF4A4;opacity=80;" parent="1" vertex="1">
          <mxGeometry x="2100" y="283.18" width="140" height="21.82" as="geometry" />
        </mxCell>
        <mxCell id="8cf6yr74W_c1tDn1U8IE-90" value="" style="curved=1;endArrow=classic;html=1;rounded=0;entryX=0.5;entryY=1;entryDx=0;entryDy=0;exitX=1;exitY=0.5;exitDx=0;exitDy=0;" parent="1" source="8cf6yr74W_c1tDn1U8IE-70" target="8cf6yr74W_c1tDn1U8IE-72" edge="1">
          <mxGeometry width="50" height="50" relative="1" as="geometry">
            <mxPoint x="2975" y="440" as="sourcePoint" />
            <mxPoint x="2860" y="640" as="targetPoint" />
            <Array as="points">
              <mxPoint x="3440" y="820" />
            </Array>
          </mxGeometry>
        </mxCell>
        <mxCell id="8cf6yr74W_c1tDn1U8IE-93" value="" style="curved=1;endArrow=classic;html=1;rounded=0;entryX=1;entryY=0.5;entryDx=0;entryDy=0;exitX=0.5;exitY=1;exitDx=0;exitDy=0;" parent="1" source="8cf6yr74W_c1tDn1U8IE-132" target="8cf6yr74W_c1tDn1U8IE-70" edge="1">
          <mxGeometry width="50" height="50" relative="1" as="geometry">
            <mxPoint x="2945" y="390" as="sourcePoint" />
            <mxPoint x="2830" y="590" as="targetPoint" />
            <Array as="points">
              <mxPoint x="3080" y="760" />
            </Array>
          </mxGeometry>
        </mxCell>
        <mxCell id="8cf6yr74W_c1tDn1U8IE-95" value="" style="curved=1;endArrow=classic;html=1;rounded=0;entryX=0.5;entryY=1;entryDx=0;entryDy=0;exitX=0.5;exitY=0;exitDx=0;exitDy=0;" parent="1" source="8cf6yr74W_c1tDn1U8IE-72" target="8cf6yr74W_c1tDn1U8IE-46" edge="1">
          <mxGeometry width="50" height="50" relative="1" as="geometry">
            <mxPoint x="3080" y="817" as="sourcePoint" />
            <mxPoint x="3630" y="640" as="targetPoint" />
            <Array as="points">
              <mxPoint x="3370" y="310" />
            </Array>
          </mxGeometry>
        </mxCell>
        <mxCell id="8cf6yr74W_c1tDn1U8IE-99" value="ID, 비밀번호, OTP" style="rounded=1;whiteSpace=wrap;html=1;fillColor=#DCF4A4;opacity=80;" parent="1" vertex="1">
          <mxGeometry x="2710" y="788.18" width="120" height="21.82" as="geometry" />
        </mxCell>
        <mxCell id="8cf6yr74W_c1tDn1U8IE-104" value="&lt;span style=&quot;font-size: 14px;&quot;&gt;MQTT Broker&lt;/span&gt;" style="html=1;whiteSpace=wrap;" parent="1" vertex="1">
          <mxGeometry x="2585" y="171.82" width="130" height="90" as="geometry" />
        </mxCell>
        <mxCell id="8cf6yr74W_c1tDn1U8IE-106" value="" style="curved=1;endArrow=classic;html=1;rounded=0;entryX=0;entryY=0.5;entryDx=0;entryDy=0;exitX=1;exitY=0.5;exitDx=0;exitDy=0;" parent="1" source="8cf6yr74W_c1tDn1U8IE-104" target="8cf6yr74W_c1tDn1U8IE-111" edge="1">
          <mxGeometry width="50" height="50" relative="1" as="geometry">
            <mxPoint x="2610" y="245" as="sourcePoint" />
            <mxPoint x="2690" y="245" as="targetPoint" />
            <Array as="points">
              <mxPoint x="2770" y="200" />
            </Array>
          </mxGeometry>
        </mxCell>
        <mxCell id="8cf6yr74W_c1tDn1U8IE-111" value="&lt;span style=&quot;font-size: 14px;&quot;&gt;MQTT 메시지 수신 처리&lt;/span&gt;" style="shape=ellipse;html=1;dashed=0;whiteSpace=wrap;aspect=fixed;perimeter=ellipsePerimeter;" parent="1" vertex="1">
          <mxGeometry x="2895" y="171.82" width="100" height="100" as="geometry" />
        </mxCell>
        <mxCell id="8cf6yr74W_c1tDn1U8IE-112" value="" style="curved=1;endArrow=classic;html=1;rounded=0;entryX=0;entryY=0.5;entryDx=0;entryDy=0;exitX=1;exitY=0.5;exitDx=0;exitDy=0;" parent="1" source="8cf6yr74W_c1tDn1U8IE-111" target="8cf6yr74W_c1tDn1U8IE-46" edge="1">
          <mxGeometry width="50" height="50" relative="1" as="geometry">
            <mxPoint x="2930" y="237" as="sourcePoint" />
            <mxPoint x="3095" y="242" as="targetPoint" />
            <Array as="points">
              <mxPoint x="3050" y="200" />
            </Array>
          </mxGeometry>
        </mxCell>
        <mxCell id="8cf6yr74W_c1tDn1U8IE-116" value="&lt;span style=&quot;font-size: 14px;&quot;&gt;앱 로그인&lt;/span&gt;" style="shape=ellipse;html=1;dashed=0;whiteSpace=wrap;aspect=fixed;perimeter=ellipsePerimeter;" parent="1" vertex="1">
          <mxGeometry x="2585" y="730" width="100" height="100" as="geometry" />
        </mxCell>
        <mxCell id="8cf6yr74W_c1tDn1U8IE-117" value="" style="curved=1;endArrow=classic;html=1;rounded=0;exitX=1;exitY=0.5;exitDx=0;exitDy=0;entryX=0;entryY=0.5;entryDx=0;entryDy=0;" parent="1" source="8cf6yr74W_c1tDn1U8IE-45" target="8cf6yr74W_c1tDn1U8IE-116" edge="1">
          <mxGeometry width="50" height="50" relative="1" as="geometry">
            <mxPoint x="2350" y="795" as="sourcePoint" />
            <mxPoint x="2500" y="790" as="targetPoint" />
            <Array as="points">
              <mxPoint x="2550" y="760" />
            </Array>
          </mxGeometry>
        </mxCell>
        <mxCell id="8cf6yr74W_c1tDn1U8IE-119" value="" style="curved=1;endArrow=classic;html=1;rounded=0;exitX=1;exitY=0.5;exitDx=0;exitDy=0;entryX=0;entryY=0.5;entryDx=0;entryDy=0;" parent="1" source="8cf6yr74W_c1tDn1U8IE-116" target="8cf6yr74W_c1tDn1U8IE-70" edge="1">
          <mxGeometry width="50" height="50" relative="1" as="geometry">
            <mxPoint x="2760" y="815" as="sourcePoint" />
            <mxPoint x="2890" y="820" as="targetPoint" />
            <Array as="points">
              <mxPoint x="2760" y="800" />
            </Array>
          </mxGeometry>
        </mxCell>
        <mxCell id="8cf6yr74W_c1tDn1U8IE-127" value="&lt;span style=&quot;font-size: 14px;&quot;&gt;로그인 처리&lt;/span&gt;" style="shape=ellipse;html=1;dashed=0;whiteSpace=wrap;aspect=fixed;perimeter=ellipsePerimeter;" parent="1" vertex="1">
          <mxGeometry x="3540" y="480" width="100" height="100" as="geometry" />
        </mxCell>
        <mxCell id="8cf6yr74W_c1tDn1U8IE-128" value="" style="curved=1;endArrow=classic;html=1;rounded=0;entryX=0.5;entryY=0;entryDx=0;entryDy=0;exitX=0.5;exitY=1;exitDx=0;exitDy=0;" parent="1" source="8cf6yr74W_c1tDn1U8IE-46" target="8cf6yr74W_c1tDn1U8IE-127" edge="1">
          <mxGeometry width="50" height="50" relative="1" as="geometry">
            <mxPoint x="3483" y="519" as="sourcePoint" />
            <mxPoint x="3290" y="300" as="targetPoint" />
            <Array as="points">
              <mxPoint x="3520" y="290" />
            </Array>
          </mxGeometry>
        </mxCell>
        <mxCell id="8cf6yr74W_c1tDn1U8IE-129" value="" style="curved=1;endArrow=classic;html=1;rounded=0;entryX=1;entryY=0.5;entryDx=0;entryDy=0;exitX=0.5;exitY=1;exitDx=0;exitDy=0;" parent="1" source="8cf6yr74W_c1tDn1U8IE-127" target="8cf6yr74W_c1tDn1U8IE-70" edge="1">
          <mxGeometry width="50" height="50" relative="1" as="geometry">
            <mxPoint x="3510" y="430" as="sourcePoint" />
            <mxPoint x="3855" y="649" as="targetPoint" />
            <Array as="points">
              <mxPoint x="3560" y="850" />
            </Array>
          </mxGeometry>
        </mxCell>
        <mxCell id="8cf6yr74W_c1tDn1U8IE-130" value="&lt;span style=&quot;font-size: 14px;&quot;&gt;주행 로그 전달&lt;/span&gt;" style="shape=ellipse;html=1;dashed=0;whiteSpace=wrap;aspect=fixed;perimeter=ellipsePerimeter;" parent="1" vertex="1">
          <mxGeometry x="3280" y="480" width="100" height="100" as="geometry" />
        </mxCell>
        <mxCell id="8cf6yr74W_c1tDn1U8IE-132" value="&lt;span style=&quot;font-size: 14px;&quot;&gt;분석 결과 처리&lt;/span&gt;" style="shape=ellipse;html=1;dashed=0;whiteSpace=wrap;aspect=fixed;perimeter=ellipsePerimeter;" parent="1" vertex="1">
          <mxGeometry x="3020" y="480" width="100" height="100" as="geometry" />
        </mxCell>
        <mxCell id="8cf6yr74W_c1tDn1U8IE-133" value="" style="curved=1;endArrow=classic;html=1;rounded=0;entryX=0.5;entryY=0;entryDx=0;entryDy=0;exitX=0.5;exitY=1;exitDx=0;exitDy=0;" parent="1" source="8cf6yr74W_c1tDn1U8IE-46" target="8cf6yr74W_c1tDn1U8IE-130" edge="1">
          <mxGeometry width="50" height="50" relative="1" as="geometry">
            <mxPoint x="3460" y="320" as="sourcePoint" />
            <mxPoint x="3845" y="538" as="targetPoint" />
            <Array as="points">
              <mxPoint x="3280" y="350" />
            </Array>
          </mxGeometry>
        </mxCell>
        <mxCell id="8cf6yr74W_c1tDn1U8IE-134" value="" style="curved=1;endArrow=classic;html=1;rounded=0;entryX=1;entryY=0.5;entryDx=0;entryDy=0;exitX=0.5;exitY=1;exitDx=0;exitDy=0;" parent="1" source="8cf6yr74W_c1tDn1U8IE-130" target="8cf6yr74W_c1tDn1U8IE-70" edge="1">
          <mxGeometry width="50" height="50" relative="1" as="geometry">
            <mxPoint x="3400" y="550" as="sourcePoint" />
            <mxPoint x="3515" y="768" as="targetPoint" />
            <Array as="points">
              <mxPoint x="3380" y="800" />
            </Array>
          </mxGeometry>
        </mxCell>
        <mxCell id="8cf6yr74W_c1tDn1U8IE-135" value="" style="curved=1;endArrow=classic;html=1;rounded=0;entryX=0.5;entryY=1;entryDx=0;entryDy=0;exitX=1;exitY=0.5;exitDx=0;exitDy=0;" parent="1" source="8cf6yr74W_c1tDn1U8IE-70" target="8cf6yr74W_c1tDn1U8IE-69" edge="1">
          <mxGeometry width="50" height="50" relative="1" as="geometry">
            <mxPoint x="3080" y="965" as="sourcePoint" />
            <mxPoint x="3600" y="760" as="targetPoint" />
            <Array as="points">
              <mxPoint x="3230" y="800" />
            </Array>
          </mxGeometry>
        </mxCell>
        <mxCell id="8cf6yr74W_c1tDn1U8IE-137" value="" style="curved=1;endArrow=classic;html=1;rounded=0;entryX=0.5;entryY=1;entryDx=0;entryDy=0;exitX=0.5;exitY=0;exitDx=0;exitDy=0;" parent="1" source="8cf6yr74W_c1tDn1U8IE-69" target="8cf6yr74W_c1tDn1U8IE-46" edge="1">
          <mxGeometry width="50" height="50" relative="1" as="geometry">
            <mxPoint x="3190" y="368.17999999999984" as="sourcePoint" />
            <mxPoint x="3480" y="690" as="targetPoint" />
            <Array as="points">
              <mxPoint x="3150" y="380" />
            </Array>
          </mxGeometry>
        </mxCell>
        <mxCell id="8cf6yr74W_c1tDn1U8IE-138" value="" style="curved=1;endArrow=classic;html=1;rounded=0;entryX=0.5;entryY=1;entryDx=0;entryDy=0;exitX=1;exitY=0.5;exitDx=0;exitDy=0;" parent="1" source="8cf6yr74W_c1tDn1U8IE-70" target="8cf6yr74W_c1tDn1U8IE-59" edge="1">
          <mxGeometry width="50" height="50" relative="1" as="geometry">
            <mxPoint x="3210" y="905" as="sourcePoint" />
            <mxPoint x="3470" y="700" as="targetPoint" />
            <Array as="points">
              <mxPoint x="2910" y="680" />
            </Array>
          </mxGeometry>
        </mxCell>
        <mxCell id="8cf6yr74W_c1tDn1U8IE-139" value="" style="curved=1;endArrow=classic;html=1;rounded=0;entryX=0.5;entryY=1;entryDx=0;entryDy=0;exitX=0.5;exitY=0;exitDx=0;exitDy=0;" parent="1" source="8cf6yr74W_c1tDn1U8IE-59" target="8cf6yr74W_c1tDn1U8IE-46" edge="1">
          <mxGeometry width="50" height="50" relative="1" as="geometry">
            <mxPoint x="3050" y="835" as="sourcePoint" />
            <mxPoint x="3055" y="630" as="targetPoint" />
            <Array as="points">
              <mxPoint x="2960" y="290" />
            </Array>
          </mxGeometry>
        </mxCell>
        <mxCell id="8cf6yr74W_c1tDn1U8IE-149" value="JWT" style="rounded=1;whiteSpace=wrap;html=1;fillColor=#DCF4A4;opacity=80;" parent="1" vertex="1">
          <mxGeometry x="3540" y="685.0000000000001" width="60" height="21.82" as="geometry" />
        </mxCell>
        <mxCell id="8cf6yr74W_c1tDn1U8IE-151" value="JWT" style="rounded=1;whiteSpace=wrap;html=1;fillColor=#DCF4A4;opacity=80;" parent="1" vertex="1">
          <mxGeometry x="3150" y="708.18" width="60" height="21.82" as="geometry" />
        </mxCell>
        <mxCell id="8cf6yr74W_c1tDn1U8IE-153" value="비정상 주행 데이터" style="rounded=1;whiteSpace=wrap;html=1;fillColor=#DCF4A4;opacity=80;" parent="1" vertex="1">
          <mxGeometry x="3030" y="355" width="100" height="21.82" as="geometry" />
        </mxCell>
        <mxCell id="8cf6yr74W_c1tDn1U8IE-155" value="JWT" style="rounded=1;whiteSpace=wrap;html=1;fillColor=#DCF4A4;opacity=80;" parent="1" vertex="1">
          <mxGeometry x="2910" y="686.36" width="60" height="21.82" as="geometry" />
        </mxCell>
        <mxCell id="8cf6yr74W_c1tDn1U8IE-159" value="주행 로그 메시지" style="rounded=1;whiteSpace=wrap;html=1;fillColor=#DCF4A4;opacity=80;" parent="1" vertex="1">
          <mxGeometry x="2460" y="202.53" width="100" height="21.82" as="geometry" />
        </mxCell>
        <mxCell id="8cf6yr74W_c1tDn1U8IE-165" value="페달 압력 값" style="rounded=1;whiteSpace=wrap;html=1;fillColor=#DCF4A4;opacity=80;" parent="1" vertex="1">
          <mxGeometry x="1830" y="246.59" width="80" height="21.82" as="geometry" />
        </mxCell>
        <mxCell id="8cf6yr74W_c1tDn1U8IE-166" value="센서 입력 값" style="rounded=1;whiteSpace=wrap;html=1;fillColor=#DCF4A4;opacity=80;" parent="1" vertex="1">
          <mxGeometry x="2020" y="178.18" width="70" height="21.82" as="geometry" />
        </mxCell>
        <mxCell id="8cf6yr74W_c1tDn1U8IE-167" value="주행 로그" style="rounded=1;whiteSpace=wrap;html=1;fillColor=#DCF4A4;opacity=80;" parent="1" vertex="1">
          <mxGeometry x="2260" y="180" width="70" height="21.82" as="geometry" />
        </mxCell>
        <mxCell id="8cf6yr74W_c1tDn1U8IE-168" value="경고 메시지" style="rounded=1;whiteSpace=wrap;html=1;fillColor=#DCF4A4;opacity=80;" parent="1" vertex="1">
          <mxGeometry x="2190" y="480" width="90" height="21.82" as="geometry" />
        </mxCell>
        <mxCell id="8cf6yr74W_c1tDn1U8IE-169" value="시각적 피드백" style="rounded=1;whiteSpace=wrap;html=1;fillColor=#DCF4A4;opacity=80;" parent="1" vertex="1">
          <mxGeometry x="2060" y="478.18" width="90" height="21.82" as="geometry" />
        </mxCell>
        <mxCell id="8cf6yr74W_c1tDn1U8IE-170" value="실시간 차량 상태 알림" style="rounded=1;whiteSpace=wrap;html=1;fillColor=#DCF4A4;opacity=80;" parent="1" vertex="1">
          <mxGeometry x="2220" y="779.9999999999999" width="120" height="21.82" as="geometry" />
        </mxCell>
        <mxCell id="8cf6yr74W_c1tDn1U8IE-171" value="주행 로그 메시지" style="rounded=1;whiteSpace=wrap;html=1;fillColor=#DCF4A4;opacity=80;" parent="1" vertex="1">
          <mxGeometry x="2750" y="180.71" width="100" height="21.82" as="geometry" />
        </mxCell>
        <mxCell id="8cf6yr74W_c1tDn1U8IE-172" value="주행 로그" style="rounded=1;whiteSpace=wrap;html=1;fillColor=#DCF4A4;opacity=80;" parent="1" vertex="1">
          <mxGeometry x="3035" y="190" width="70" height="21.82" as="geometry" />
        </mxCell>
        <mxCell id="8cf6yr74W_c1tDn1U8IE-179" value="주행 로그" style="rounded=1;whiteSpace=wrap;html=1;fillColor=#DCF4A4;opacity=80;" parent="1" vertex="1">
          <mxGeometry x="3250" y="368.18" width="70" height="21.82" as="geometry" />
        </mxCell>
        <mxCell id="8cf6yr74W_c1tDn1U8IE-181" value="분석 결과 응답(그래프, 피드백)" style="rounded=1;whiteSpace=wrap;html=1;fillColor=#DCF4A4;opacity=80;" parent="1" vertex="1">
          <mxGeometry x="2985" y="663.1800000000001" width="165" height="21.82" as="geometry" />
        </mxCell>
        <mxCell id="8cf6yr74W_c1tDn1U8IE-186" value="ID, 비밀번호, OTP" style="rounded=1;whiteSpace=wrap;html=1;fillColor=#DCF4A4;opacity=80;" parent="1" vertex="1">
          <mxGeometry x="3370" y="680" width="120" height="21.82" as="geometry" />
        </mxCell>
        <mxCell id="8cf6yr74W_c1tDn1U8IE-187" value="인증된 사용자 정보" style="rounded=1;whiteSpace=wrap;html=1;fillColor=#DCF4A4;opacity=80;" parent="1" vertex="1">
          <mxGeometry x="3350" y="384.09" width="120" height="21.82" as="geometry" />
        </mxCell>
        <mxCell id="8cf6yr74W_c1tDn1U8IE-189" value="사용자 정보, Key" style="rounded=1;whiteSpace=wrap;html=1;fillColor=#DCF4A4;opacity=80;" parent="1" vertex="1">
          <mxGeometry x="3490" y="342.21" width="100" height="21.82" as="geometry" />
        </mxCell>
        <mxCell id="8cf6yr74W_c1tDn1U8IE-192" value="주행 로그 데이터(CSV)" style="rounded=1;whiteSpace=wrap;html=1;fillColor=#DCF4A4;opacity=80;" parent="1" vertex="1">
          <mxGeometry x="3270" y="642.72" width="130" height="21.82" as="geometry" />
        </mxCell>
        <mxCell id="8cf6yr74W_c1tDn1U8IE-194" value="분석 요청" style="rounded=1;whiteSpace=wrap;html=1;fillColor=#DCF4A4;opacity=80;" parent="1" vertex="1">
          <mxGeometry x="2920" y="384.09" width="100" height="21.82" as="geometry" />
        </mxCell>
        <mxCell id="8cf6yr74W_c1tDn1U8IE-195" value="주행 로그 요청" style="rounded=1;whiteSpace=wrap;html=1;fillColor=#DCF4A4;opacity=80;" parent="1" vertex="1">
          <mxGeometry x="3150" y="384.09" width="80" height="21.82" as="geometry" />
        </mxCell>
        <mxCell id="8cf6yr74W_c1tDn1U8IE-196" value="경고음 출력" style="rounded=1;whiteSpace=wrap;html=1;fillColor=#DCF4A4;opacity=80;" parent="1" vertex="1">
          <mxGeometry x="2170" y="664.54" width="80" height="21.82" as="geometry" />
        </mxCell>
        <mxCell id="8cf6yr74W_c1tDn1U8IE-197" value="화면 출력" style="rounded=1;whiteSpace=wrap;html=1;fillColor=#DCF4A4;opacity=80;" parent="1" vertex="1">
          <mxGeometry x="2070" y="686.36" width="80" height="21.82" as="geometry" />
        </mxCell>
      </root>
    </mxGraphModel>
  </diagram>
</mxfile>
